# xmcd
#
# Track frame offsets:
#	150
#	15017
#	24658
#	34917
#	65646
#	78939
#	90529
#	104247
#	116454
#	123422
#	142484
#	156500
#
# Disc length: 2313 seconds
#
# Revision: 0
# Processed by: cddbd v1.5.1PL0 Copyright (c) Steve Scherf et al.
# Submitted via: EasyCDDAExtractor 8.1.4.1
#
DISCID=a309070c
DTITLE=Various Artist - Men In Song
DYEAR=1900
DGENRE=
TTITLE0=B.B. King - B.B. Boggie
TTITLE1=Little Richard - Long Tall Sally
TTITLE2=Louis Armstrong - What A Wonderful World
TTITLE3=Ray Charles - Georgia On My Mind
TTITLE4=Percy Sledge - When A Man Loves A Woman
TTITLE5=Del Shannon - Runaway
TTITLE6=Ben E. King - Stand By Me
TTITLE7=The Drifters - Under The Boardwalk
TTITLE8=Marvin Gaye - Ain't No Mountain High Enough
TTITLE9=James Brown - Sex Machine
TTITLE10=Aaron Neville - Tell It Like It Is
TTITLE11=R. B. Greaves - A White Shade Of Pale
EXTD=
EXTT0=
EXTT1=
EXTT2=
EXTT3=
EXTT4=
EXTT5=
EXTT6=
EXTT7=
EXTT8=
EXTT9=
EXTT10=
EXTT11=
PLAYORDER=
